<?xml version="1.0" encoding="UTF-8" standalone="no"?>
<svg
   width="124.44pt"
   height="144.00pt"
   viewBox="0 0 124.44 144.00"
   version="1.1"
   id="svg59"
   sodipodi:docname="logo.svg"
   inkscape:export-filename="logo.png"
   inkscape:export-xdpi="289.29605"
   inkscape:export-ydpi="289.29605"
   inkscape:version="1.4.3 (0d15f75, 2025-12-25)"
   xmlns:inkscape="http://www.inkscape.org/namespaces/inkscape"
   xmlns:sodipodi="http://sodipodi.sourceforge.net/DTD/sodipodi-0.dtd"
   xmlns="http://www.w3.org/2000/svg"
   xmlns:svg="http://www.w3.org/2000/svg">
  <defs
     id="defs59">
    <clipPath
       clipPathUnits="userSpaceOnUse"
       id="clipPath59">
      <rect
         x="2.8543112"
         y="0.42814666"
         width="124.38"
         height="144"
         id="rect60"
         style="stroke-width:0.999998" />
    </clipPath>
    <clipPath
       clipPathUnits="userSpaceOnUse"
       id="clipPath61">
      <rect
         x="-0.42814666"
         y="58.31987"
         width="124.21"
         height="80.120003"
         id="rect62"
         style="stroke-width:0.999998" />
    </clipPath>
    <clipPath
       clipPathUnits="userSpaceOnUse"
       id="clipPath62">
      <rect
         x="-0.42814666"
         y="58.31987"
         width="124.21"
         height="80.120003"
         id="rect63"
         style="stroke-width:0.999998" />
    </clipPath>
  </defs>
  <sodipodi:namedview
     id="namedview59"
     pagecolor="#ffffff"
     bordercolor="#000000"
     borderopacity="0.25"
     inkscape:showpageshadow="2"
     inkscape:pageopacity="0.0"
     inkscape:pagecheckerboard="0"
     inkscape:deskcolor="#d1d1d1"
     inkscape:document-units="pt"
     inkscape:zoom="5.2552083"
     inkscape:cx="82.965312"
     inkscape:cy="96"
     inkscape:window-width="1849"
     inkscape:window-height="1266"
     inkscape:window-x="0"
     inkscape:window-y="25"
     inkscape:window-maximized="0"
     inkscape:current-layer="g59" />
  <g
     class="svglite"
     id="g59"
     transform="translate(1.28444,-0.42814668)">
    <defs
       id="defs1">
      <style
         type="text/css"
         id="style1"><![CDATA[
    .svglite line, .svglite polyline, .svglite polygon, .svglite path, .svglite rect, .svglite circle {
      fill: none;
      stroke: #000000;
      stroke-linecap: round;
      stroke-linejoin: round;
      stroke-miterlimit: 10.00;
    }
    .svglite text {
      white-space: pre;
    }
    .svglite g.glyphgroup path {
      fill: inherit;
      stroke: none;
    }
  ]]></style>
    </defs>
    <rect
       width="100%"
       height="100%"
       style="fill:none;stroke:none"
       id="rect1"
       x="-1.024916e-08"
       y="1.1417245"
       inkscape:transform-center-x="0.46950176"
       inkscape:transform-center-y="-4.5668979" />
    <defs
       id="defs2">
      <clipPath
         id="cpMC4wMHwxMjQuNDR8MC4wMHwxNDQuMDA=">
        <rect
           x="0"
           y="0"
           width="124.44"
           height="144"
           id="rect2" />
      </clipPath>
    </defs>
    <g
       clip-path="url(#cpMC4wMHwxMjQuNDR8MC4wMHwxNDQuMDA=)"
       id="g2" />
    <defs
       id="defs3" />
    <rect
       x="0.059999991"
       y="1.1417245"
       width="124.32"
       height="144"
       style="stroke:none;stroke-width:1.07"
       id="rect4" />
    <g
       clip-path="url(#cpMC4wMHwxMjQuNDR8MC4wMHwxNDQuMDA=)"
       id="g5" />
    <defs
       id="defs5">
      <clipPath
         id="cpMC4wMHwxMjQuMzh8MC4wMHwxNDQuMDA=">
        <rect
           x="0"
           y="0"
           width="124.38"
           height="144"
           id="rect5" />
      </clipPath>
    </defs>
    <rect
       x="0.034311365"
       y="0.42814666"
       width="127.2"
       height="146.88"
       style="stroke:none;stroke-width:1.07"
       id="rect6"
       clip-path="url(#clipPath59)"
       transform="translate(0.42814668,-0.42814668)" />
    <polygon
       points="118.6,106.82 118.6,40.06 60.78,6.68 2.96,40.06 2.96,106.82 60.78,140.2 "
       style="fill:#ffffcc;stroke:none;stroke-width:4.27;stroke-linecap:butt"
       id="polygon6"
       transform="translate(1.4271557,0.28543112)" />
    <defs
       id="defs7" />
    <rect
       x="-3.0681467"
       y="58.31987"
       width="126.85"
       height="80.120003"
       style="stroke:none;stroke-width:0"
       id="rect8"
       clip-path="url(#clipPath61)"
       transform="translate(0.42814668,-0.42814668)" />
    <g
       clip-path="url(#cpMC4wMHwxMjQuMzh8MC4wMHwxNDQuMDA=)"
       id="g9" />
    <g
       clip-path="url(#cpMC4wMHwxMjQuNDR8MC4wMHwxNDQuMDA=)"
       id="g10" />
    <rect
       x="-3.0681467"
       y="58.31987"
       width="126.85"
       height="80.120003"
       style="stroke:none;stroke-width:0"
       id="rect10"
       clip-path="url(#clipPath62)"
       transform="translate(0.42814668,-0.42814668)" />
    <line
       x1="12.754054"
       y1="65.992027"
       x2="118.36406"
       y2="65.992027"
       style="stroke:#800026;stroke-width:2.56;stroke-linecap:butt;stroke-dasharray:13.66, 13.66;stroke-opacity:0.7"
       id="line10" />
    <polygon
       points="44.68,109.44 45.06,108.91 45.44,108.39 45.82,107.88 46.2,107.38 46.58,106.89 46.96,106.41 47.33,105.94 47.71,105.47 48.09,105.01 48.47,104.56 48.85,104.12 49.23,103.68 49.61,103.25 49.99,102.83 50.37,102.41 50.75,101.99 51.13,101.58 51.51,101.18 51.89,100.78 52.27,100.38 52.65,99.99 53.04,99.6 53.42,99.22 53.8,98.84 54.19,98.47 54.57,98.09 54.96,97.73 55.34,97.36 55.73,97 56.11,96.65 56.5,96.29 56.89,95.94 57.28,95.59 57.66,95.25 58.05,94.91 58.44,94.57 58.83,94.24 59.22,93.91 59.61,93.58 60,93.25 60.39,92.93 60.79,92.61 61.18,92.29 61.57,91.97 61.97,91.66 62.36,91.35 62.76,91.05 63.15,90.74 63.55,90.44 63.94,90.14 64.34,89.84 64.74,89.55 65.14,89.26 65.53,88.97 65.93,88.68 66.33,88.4 66.73,88.11 67.13,87.83 67.54,87.56 67.94,87.28 68.34,87.01 68.74,86.74 69.15,86.47 69.55,86.2 69.96,85.94 70.36,85.68 70.77,85.42 71.17,85.16 71.58,84.91 71.99,84.66 72.4,84.41 72.81,84.16 73.22,83.91 73.63,83.67 74.04,83.43 74.45,83.19 74.86,82.95 75.27,82.71 75.68,82.48 76.1,82.25 76.51,82.02 76.93,81.79 77.34,81.57 77.76,81.34 78.17,81.12 78.59,80.9 79.01,80.69 79.43,80.47 79.85,80.26 80.27,80.05 80.69,79.84 81.11,79.63 81.53,79.43 81.95,79.23 82.37,79.03 82.8,78.83 83.22,78.63 83.64,78.44 84.07,78.25 84.5,78.06 84.92,77.87 85.35,77.68 85.78,77.5 86.2,77.31 86.63,77.13 87.06,76.96 87.49,76.78 87.92,76.61 88.35,76.43 88.78,76.26 89.22,76.09 89.65,75.93 90.08,75.76 90.52,75.6 90.95,75.44 91.39,75.28 91.82,75.13 92.26,74.97 92.7,74.82 93.14,74.67 93.58,74.52 94.01,74.37 94.45,74.23 94.9,74.09 95.34,73.95 95.78,73.81 96.22,73.67 96.66,73.54 97.11,73.4 97.55,73.27 98,73.14 98.39,72.93 98.77,72.7 99.15,72.47 99.54,72.24 99.92,72.01 100.54,73.05 100.16,73.28 99.78,73.51 99.39,73.74 99.01,73.97 98.64,74.21 98.32,74.54 98,74.87 97.67,75.2 97.35,75.53 97.03,75.86 96.7,76.19 96.38,76.52 96.05,76.84 95.73,77.17 95.4,77.49 95.07,77.81 94.75,78.14 94.42,78.46 94.09,78.78 93.76,79.1 93.43,79.42 93.1,79.73 92.77,80.05 92.43,80.37 92.1,80.68 91.77,80.99 91.43,81.31 91.1,81.62 90.76,81.93 90.43,82.24 90.09,82.55 89.75,82.86 89.42,83.17 89.08,83.48 88.74,83.79 88.4,84.1 88.06,84.4 87.72,84.71 87.38,85.01 87.03,85.32 86.69,85.62 86.35,85.92 86.01,86.22 85.66,86.53 85.32,86.83 84.97,87.13 84.62,87.43 84.28,87.73 83.93,88.02 83.58,88.32 83.23,88.62 82.88,88.92 82.53,89.22 82.18,89.51 81.83,89.81 81.48,90.1 81.13,90.4 80.77,90.69 80.42,90.99 80.07,91.28 79.71,91.57 79.36,91.87 79,92.16 78.65,92.45 78.29,92.75 77.93,93.04 77.57,93.33 77.21,93.62 76.85,93.91 76.5,94.21 76.13,94.5 75.77,94.79 75.41,95.08 75.05,95.37 74.69,95.66 74.32,95.95 73.96,96.25 73.6,96.54 73.23,96.83 72.87,97.12 72.5,97.41 72.13,97.7 71.77,97.99 71.4,98.29 71.03,98.58 70.66,98.87 70.29,99.16 69.92,99.46 69.55,99.75 69.18,100.04 68.81,100.34 68.44,100.63 68.06,100.93 67.69,101.22 67.32,101.52 66.94,101.82 66.57,102.12 66.19,102.41 65.82,102.71 65.44,103.01 65.06,103.32 64.69,103.62 64.31,103.92 63.93,104.22 63.55,104.53 63.17,104.84 62.79,105.14 62.41,105.45 62.03,105.76 61.65,106.08 61.27,106.39 60.89,106.7 60.51,107.02 60.12,107.34 59.74,107.66 59.36,107.98 58.97,108.31 58.59,108.63 58.2,108.96 57.82,109.29 57.43,109.63 57.05,109.97 56.66,110.31 56.28,110.65 55.89,111 55.5,111.35 55.12,111.7 54.73,112.06 54.34,112.42 53.95,112.79 53.57,113.16 53.18,113.54 52.79,113.92 52.4,114.31 52.02,114.71 51.63,115.12 51.24,115.53 50.86,115.95 50.47,116.38 50.09,116.82 49.71,117.28 49.33,117.75 48.95,118.23 48.57,118.74 48.2,119.27 47.83,119.84 47.48,120.45 47.14,121.12 46.88,122.05 39.48,120.12 39.98,118.12 40.41,116.97 40.82,116.02 41.22,115.18 41.62,114.41 42.01,113.68 42.39,113 42.78,112.35 43.16,111.73 43.54,111.13 43.92,110.55 44.3,109.99 "
       style="fill:#bd0026;stroke:#800026;stroke-width:2.56;stroke-linecap:butt"
       id="polygon10"
       transform="matrix(1.2038736,0,0,1.2173765,-20.338605,-23.518207)" />
    <polygon
       points="105.11,67.12 107.31,70.81 104.92,69.73 100.23,72.53 104.92,69.73 "
       style="fill:#238b45;stroke:#006d2c;stroke-width:1.07;stroke-linecap:butt"
       id="polygon11"
       transform="matrix(2.4484213,0,0,2.7376577,-149.4211,-131.18506)" />
    <polyline
       points="44.89,113.01 45.28,112.44 45.66,111.90 46.04,111.37 46.42,110.86 46.80,110.36 47.18,109.87 47.56,109.39 47.94,108.92 48.32,108.46 48.70,108.00 49.09,107.56 49.47,107.12 49.85,106.69 50.23,106.26 50.61,105.84 50.99,105.43 51.37,105.02 51.75,104.61 52.13,104.21 52.52,103.82 52.90,103.43 53.28,103.04 53.66,102.66 54.04,102.28 54.43,101.91 54.81,101.54 55.19,101.17 55.58,100.81 55.96,100.45 56.34,100.09 56.73,99.74 57.11,99.39 57.49,99.04 57.88,98.69 58.26,98.35 58.65,98.01 59.03,97.68 59.42,97.34 59.81,97.01 60.19,96.68 60.58,96.36 60.96,96.03 61.35,95.71 61.74,95.39 62.13,95.08 62.51,94.76 62.90,94.45 63.29,94.14 63.68,93.83 64.07,93.53 64.45,93.22 64.84,92.92 65.23,92.62 65.62,92.32 66.01,92.03 66.40,91.73 66.79,91.44 67.18,91.15 67.58,90.86 67.97,90.58 68.36,90.29 68.75,90.01 69.14,89.73 69.53,89.45 69.93,89.17 70.32,88.90 70.71,88.62 71.11,88.35 71.50,88.08 71.90,87.81 72.29,87.54 72.68,87.28 73.08,87.01 73.47,86.75 73.87,86.49 74.27,86.23 74.66,85.97 75.06,85.72 75.46,85.46 75.85,85.21 76.25,84.96 76.65,84.71 77.05,84.46 77.44,84.21 77.84,83.97 78.24,83.72 78.64,83.48 79.04,83.24 79.44,83.00 79.84,82.76 "
       style="stroke:#fc4e2a;stroke-width:3.84;stroke-opacity:0.5"
       id="polyline11"
       transform="matrix(1.1557782,0,0,1.1283743,-14.710151,-16.490597)" />
    <g
       clip-path="url(#cpMC4wMHwxMjQuNDR8MC4wMHwxNDQuMDA=)"
       id="g12" />
    <g
       clip-path="url(#cpMC4wMHwxMjQuMzh8MC4wMHwxNDQuMDA=)"
       id="g13" />
    <g
       clip-path="url(#cpMC4wMHwxMjQuNDR8MC4wMHwxNDQuMDA=)"
       id="g14" />
    <g
       clip-path="url(#cpMC4wMHwxMjQuMzh8MC4wMHwxNDQuMDA=)"
       id="g15" />
    <g
       clip-path="url(#cpMC4wMHwxMjQuNDR8MC4wMHwxNDQuMDA=)"
       id="g16" />
    <g
       clip-path="url(#cpMC4wMHwxMjQuMzh8MC4wMHwxNDQuMDA=)"
       id="g17" />
    <g
       clip-path="url(#cpMC4wMHwxMjQuNDR8MC4wMHwxNDQuMDA=)"
       id="g18" />
    <g
       clip-path="url(#cpMC4wMHwxMjQuMzh8MC4wMHwxNDQuMDA=)"
       id="g19" />
    <g
       clip-path="url(#cpMC4wMHwxMjQuNDR8MC4wMHwxNDQuMDA=)"
       id="g20" />
    <g
       clip-path="url(#cpMC4wMHwxMjQuMzh8MC4wMHwxNDQuMDA=)"
       id="g21" />
    <g
       clip-path="url(#cpMC4wMHwxMjQuNDR8MC4wMHwxNDQuMDA=)"
       id="g22" />
    <g
       clip-path="url(#cpMC4wMHwxMjQuMzh8MC4wMHwxNDQuMDA=)"
       id="g23" />
    <g
       clip-path="url(#cpMC4wMHwxMjQuNDR8MC4wMHwxNDQuMDA=)"
       id="g24" />
    <g
       clip-path="url(#cpMC4wMHwxMjQuMzh8MC4wMHwxNDQuMDA=)"
       id="g25" />
    <g
       clip-path="url(#cpMC4wMHwxMjQuNDR8MC4wMHwxNDQuMDA=)"
       id="g26" />
    <g
       clip-path="url(#cpMC4wMHwxMjQuMzh8MC4wMHwxNDQuMDA=)"
       id="g27" />
    <g
       clip-path="url(#cpMC4wMHwxMjQuNDR8MC4wMHwxNDQuMDA=)"
       id="g28" />
    <g
       clip-path="url(#cpMC4wMHwxMjQuMzh8MC4wMHwxNDQuMDA=)"
       id="g29" />
    <g
       clip-path="url(#cpMC4wMHwxMjQuNDR8MC4wMHwxNDQuMDA=)"
       id="g30" />
    <g
       clip-path="url(#cpMC4wMHwxMjQuMzh8MC4wMHwxNDQuMDA=)"
       id="g31" />
    <g
       clip-path="url(#cpMC4wMHwxMjQuNDR8MC4wMHwxNDQuMDA=)"
       id="g32" />
    <g
       clip-path="url(#cpMC4wMHwxMjQuMzh8MC4wMHwxNDQuMDA=)"
       id="g33" />
    <g
       clip-path="url(#cpMC4wMHwxMjQuNDR8MC4wMHwxNDQuMDA=)"
       id="g34" />
    <g
       clip-path="url(#cpMC4wMHwxMjQuMzh8MC4wMHwxNDQuMDA=)"
       id="g35" />
    <g
       clip-path="url(#cpMC4wMHwxMjQuNDR8MC4wMHwxNDQuMDA=)"
       id="g36" />
    <g
       clip-path="url(#cpMC4wMHwxMjQuMzh8MC4wMHwxNDQuMDA=)"
       id="g37" />
    <g
       clip-path="url(#cpMC4wMHwxMjQuNDR8MC4wMHwxNDQuMDA=)"
       id="g38" />
    <g
       clip-path="url(#cpMC4wMHwxMjQuMzh8MC4wMHwxNDQuMDA=)"
       id="g39" />
    <g
       clip-path="url(#cpMC4wMHwxMjQuNDR8MC4wMHwxNDQuMDA=)"
       id="g40" />
    <g
       clip-path="url(#cpMC4wMHwxMjQuMzh8MC4wMHwxNDQuMDA=)"
       id="g41" />
    <g
       clip-path="url(#cpMC4wMHwxMjQuNDR8MC4wMHwxNDQuMDA=)"
       id="g42" />
    <g
       clip-path="url(#cpMC4wMHwxMjQuMzh8MC4wMHwxNDQuMDA=)"
       id="g43" />
    <g
       clip-path="url(#cpMC4wMHwxMjQuNDR8MC4wMHwxNDQuMDA=)"
       id="g44" />
    <g
       clip-path="url(#cpMC4wMHwxMjQuMzh8MC4wMHwxNDQuMDA=)"
       id="g45" />
    <g
       clip-path="url(#cpMC4wMHwxMjQuNDR8MC4wMHwxNDQuMDA=)"
       id="g46" />
    <g
       clip-path="url(#cpMC4wMHwxMjQuMzh8MC4wMHwxNDQuMDA=)"
       id="g47" />
    <g
       clip-path="url(#cpMC4wMHwxMjQuNDR8MC4wMHwxNDQuMDA=)"
       id="g48" />
    <g
       clip-path="url(#cpMC4wMHwxMjQuMzh8MC4wMHwxNDQuMDA=)"
       id="g49" />
    <g
       clip-path="url(#cpMC4wMHwxMjQuNDR8MC4wMHwxNDQuMDA=)"
       id="g50" />
    <g
       clip-path="url(#cpMC4wMHwxMjQuMzh8MC4wMHwxNDQuMDA=)"
       id="g51" />
    <g
       clip-path="url(#cpMC4wMHwxMjQuNDR8MC4wMHwxNDQuMDA=)"
       id="g52" />
    <polygon
       points="2.96,106.82 60.78,140.2 118.6,106.82 118.6,40.06 60.78,6.68 2.96,40.06 "
       style="stroke:#bd0026;stroke-width:4.27;stroke-linecap:butt"
       id="polygon52"
       transform="translate(0,1.1417245)" />
    <path
       d="m 30.56,43.951724 v 0 h 0.04 l 0.03,-0.01 0.04,-0.01 h 0.03 l 0.03,-0.01 h 0.04 l 0.03,-0.01 h 0.04 0.03 l 0.04,-0.01 v 0 h 0.03 0.04 l 0.04,-0.01 h 0.04 0.03 0.04 0.04 0.04 l 0.03,-0.01 h 0.04 v 0 h 0.03 l 0.04,0.01 h 0.03 0.04 0.04 0.03 0.04 l 0.03,0.01 h 0.04 0.04 v 0 l 0.04,0.01 h 0.03 0.04 l 0.04,0.01 h 0.03 l 0.04,0.01 h 0.03 l 0.04,0.01 0.03,0.01 H 32 v 0 0.01 0.01 l 0.01,0.02 v 0.01 0.03 l 0.01,0.02 v 0.03 0.03 l 0.01,0.03 v 0.03 0 l 0.01,0.04 v 0.03 l 0.01,0.04 0.01,0.04 v 0.03 l 0.01,0.04 v 0.04 l 0.01,0.04 v 0.04 0.04 0 l 0.01,0.04 0.01,0.04 v 0.04 l 0.01,0.04 v 0.04 l 0.01,0.04 v 0.04 l 0.01,0.04 v 0.04 0.03 0 l 0.01,0.04 0.01,0.03 v 0.03 l 0.01,0.03 v 0.03 0.02 l 0.01,0.02 v 0.02 0.01 0.01 0 l 0.03,-0.05 0.04,-0.06 0.04,-0.05 0.04,-0.05 0.04,-0.06 0.04,-0.05 0.04,-0.05 0.05,-0.05 0.04,-0.06 0.05,-0.05 v 0 l 0.05,-0.05 0.05,-0.05 0.05,-0.05 0.05,-0.04 0.06,-0.05 0.06,-0.05 0.05,-0.04 0.07,-0.04 0.06,-0.05 0.06,-0.04 v 0 l 0.07,-0.04 0.07,-0.04 0.07,-0.03 0.08,-0.04 0.07,-0.03 0.08,-0.03 0.07,-0.03 0.08,-0.03 0.08,-0.03 0.08,-0.02 v 0 l 0.09,-0.03 0.09,-0.02 0.09,-0.01 0.09,-0.02 0.09,-0.01 0.1,-0.01 0.09,-0.01 0.1,-0.01 h 0.1 0.1 v 0 h 0.15 l 0.15,0.01 0.15,0.01 0.15,0.02 0.14,0.02 0.14,0.03 0.14,0.03 0.13,0.04 0.14,0.05 0.13,0.04 v 0 l 0.13,0.06 0.13,0.06 0.12,0.06 0.12,0.08 0.11,0.07 0.11,0.09 0.11,0.08 0.1,0.1 0.1,0.1 0.1,0.11 v 0 l 0.09,0.11 0.09,0.11 0.08,0.12 0.08,0.13 0.08,0.13 0.07,0.14 0.07,0.15 0.06,0.15 0.06,0.16 0.05,0.16 v 0 l 0.05,0.17 0.05,0.17 0.04,0.18 0.03,0.19 0.03,0.19 0.03,0.2 0.02,0.2 0.01,0.21 0.01,0.22 v 0.22 0 l -0.01,0.44 -0.04,0.42 -0.06,0.4 -0.08,0.39 -0.11,0.36 -0.14,0.34 -0.16,0.33 -0.18,0.3 -0.21,0.29 -0.24,0.26 v 0 l -0.25,0.24 -0.27,0.22 -0.3,0.19 -0.31,0.16 -0.33,0.14 -0.36,0.11 -0.38,0.09 -0.39,0.07 -0.42,0.03 -0.44,0.02 v 0 h -0.07 l -0.08,-0.01 H 33.48 33.4 l -0.08,-0.01 h -0.07 l -0.08,-0.01 -0.08,-0.01 -0.08,-0.01 -0.07,-0.01 v 0 l -0.08,-0.01 -0.08,-0.01 -0.07,-0.01 -0.07,-0.01 -0.07,-0.02 -0.07,-0.01 -0.06,-0.01 -0.07,-0.02 -0.06,-0.02 -0.06,-0.01 v 4.01 0 l -0.04,0.01 h -0.04 l -0.04,0.01 h -0.05 l -0.04,0.01 H 32 l -0.05,0.01 H 31.9 l -0.04,0.01 h -0.05 v 0 h -0.04 l -0.05,0.01 H 31.68 31.64 31.6 l -0.04,0.01 H 31.52 31.48 31.44 31.4 v 0 h -0.04 -0.04 -0.04 -0.04 l -0.04,-0.01 h -0.04 -0.05 -0.04 l -0.05,-0.01 h -0.05 v 0 h -0.04 l -0.04,-0.01 h -0.05 l -0.04,-0.01 h -0.04 l -0.04,-0.01 h -0.04 l -0.04,-0.01 H 30.6 l -0.04,-0.01 z m 1.69,7.33 v 0 l 0.07,0.02 0.06,0.02 0.07,0.02 0.07,0.02 0.06,0.02 0.07,0.02 0.07,0.01 0.06,0.01 0.07,0.02 0.07,0.01 v 0 l 0.07,0.01 0.07,0.01 h 0.08 l 0.09,0.01 0.08,0.01 h 0.09 0.1 l 0.1,0.01 h 0.1 0.11 v 0 h 0.12 l 0.12,-0.01 0.12,-0.01 0.11,-0.01 0.12,-0.02 0.11,-0.02 0.11,-0.02 0.11,-0.03 0.1,-0.03 0.1,-0.04 v 0 l 0.1,-0.04 0.1,-0.05 0.1,-0.05 0.09,-0.06 0.09,-0.06 0.08,-0.06 0.09,-0.07 0.08,-0.07 0.07,-0.07 0.07,-0.08 v 0 l 0.08,-0.09 0.07,-0.09 0.06,-0.09 0.07,-0.09 0.06,-0.1 0.05,-0.11 0.06,-0.11 0.05,-0.11 0.04,-0.12 0.05,-0.12 v 0 l 0.04,-0.13 0.03,-0.13 0.04,-0.14 0.03,-0.14 0.02,-0.15 0.02,-0.15 0.02,-0.15 0.01,-0.16 v -0.16 l 0.01,-0.17 v 0 l -0.01,-0.27 -0.01,-0.26 -0.03,-0.24 -0.03,-0.24 -0.05,-0.22 -0.06,-0.21 -0.06,-0.2 -0.08,-0.19 -0.09,-0.18 -0.1,-0.16 v 0 l -0.1,-0.15 -0.12,-0.14 -0.13,-0.12 -0.14,-0.1 -0.16,-0.09 -0.17,-0.08 -0.19,-0.05 -0.19,-0.04 -0.21,-0.03 h -0.22 v 0 h -0.09 -0.08 l -0.09,0.01 -0.08,0.01 -0.08,0.01 -0.08,0.02 -0.08,0.02 -0.09,0.02 -0.07,0.03 -0.08,0.03 v 0 l -0.08,0.03 -0.08,0.04 -0.07,0.04 -0.07,0.04 -0.07,0.04 -0.07,0.05 -0.07,0.05 -0.07,0.05 -0.06,0.06 -0.06,0.06 v 0 l -0.06,0.06 -0.06,0.07 -0.06,0.07 -0.05,0.07 -0.05,0.08 -0.05,0.08 -0.05,0.08 -0.04,0.09 -0.04,0.09 -0.04,0.1 v 0 l -0.03,0.09 -0.04,0.1 -0.02,0.1 -0.03,0.1 -0.02,0.11 -0.02,0.12 -0.01,0.11 -0.01,0.12 v 0.13 l -0.01,0.13 z"
       style="fill:#800026;fill-rule:nonzero;stroke:none;stroke-width:0.75"
       id="path52" />
    <path
       d="m 41.92,48.751724 v 0 l 0.01,0.28 0.03,0.26 0.04,0.25 0.05,0.23 0.07,0.22 0.08,0.2 0.09,0.19 0.11,0.17 0.12,0.16 0.13,0.14 v 0 l 0.15,0.13 0.16,0.11 0.18,0.1 0.19,0.09 0.2,0.07 0.22,0.06 0.23,0.05 0.24,0.03 0.26,0.02 0.27,0.01 v 0 l 0.24,-0.01 0.24,-0.01 0.24,-0.02 0.23,-0.03 0.23,-0.04 0.23,-0.05 0.23,-0.05 0.22,-0.07 0.23,-0.07 0.21,-0.08 v 0 l 0.03,0.05 0.03,0.06 0.02,0.05 0.03,0.06 0.02,0.06 0.02,0.07 0.02,0.07 0.02,0.07 0.02,0.07 0.02,0.07 v 0 l 0.01,0.07 0.02,0.07 0.01,0.08 0.01,0.07 0.02,0.07 v 0.07 l 0.01,0.07 0.01,0.07 0.01,0.08 v 0.07 0 l -0.11,0.04 -0.12,0.05 -0.12,0.04 -0.12,0.04 -0.12,0.04 -0.13,0.03 -0.13,0.03 -0.13,0.03 -0.13,0.03 -0.14,0.03 v 0 l -0.13,0.02 -0.14,0.02 -0.14,0.02 -0.14,0.01 -0.15,0.02 -0.15,0.01 h -0.15 l -0.16,0.01 h -0.16 l -0.16,0.01 v 0 l -0.24,-0.01 -0.23,-0.01 -0.22,-0.01 -0.21,-0.03 -0.21,-0.03 -0.2,-0.03 -0.2,-0.04 -0.19,-0.05 -0.18,-0.06 -0.17,-0.06 v 0 l -0.17,-0.07 -0.16,-0.08 -0.16,-0.08 -0.15,-0.08 -0.14,-0.09 -0.14,-0.1 -0.13,-0.1 -0.13,-0.11 -0.12,-0.11 -0.12,-0.12 v 0 l -0.1,-0.12 -0.1,-0.13 -0.1,-0.13 -0.09,-0.14 -0.08,-0.14 -0.08,-0.15 -0.07,-0.15 -0.07,-0.15 -0.06,-0.16 -0.05,-0.16 v 0 l -0.05,-0.17 -0.04,-0.17 -0.04,-0.18 -0.03,-0.18 -0.03,-0.18 -0.03,-0.18 -0.01,-0.19 -0.02,-0.19 v -0.19 l -0.01,-0.2 v 0 l 0.01,-0.19 v -0.19 l 0.02,-0.19 0.01,-0.19 0.02,-0.18 0.03,-0.18 0.03,-0.17 0.04,-0.18 0.04,-0.17 0.04,-0.17 v 0 l 0.06,-0.17 0.06,-0.16 0.06,-0.16 0.07,-0.15 0.07,-0.15 0.08,-0.15 0.09,-0.14 0.09,-0.13 0.09,-0.13 0.1,-0.13 v 0 l 0.11,-0.12 0.11,-0.12 0.11,-0.11 0.12,-0.11 0.13,-0.1 0.13,-0.1 0.13,-0.09 0.14,-0.08 0.15,-0.08 0.15,-0.08 v 0 l 0.16,-0.07 0.17,-0.06 0.17,-0.06 0.17,-0.05 0.18,-0.04 0.19,-0.03 0.19,-0.03 0.2,-0.02 0.21,-0.01 h 0.21 v 0 h 0.17 l 0.18,0.01 0.17,0.02 0.16,0.02 0.16,0.02 0.16,0.04 0.15,0.04 0.15,0.04 0.14,0.06 0.14,0.06 v 0 l 0.14,0.06 0.13,0.07 0.12,0.07 0.12,0.08 0.12,0.08 0.11,0.09 0.11,0.09 0.1,0.1 0.1,0.1 0.1,0.11 v 0 l 0.09,0.11 0.08,0.11 0.08,0.12 0.08,0.12 0.07,0.12 0.07,0.13 0.06,0.14 0.06,0.14 0.06,0.14 0.05,0.15 v 0 l 0.04,0.15 0.04,0.15 0.04,0.15 0.03,0.16 0.03,0.16 0.02,0.16 0.01,0.16 0.02,0.17 v 0.17 l 0.01,0.17 v 0 0.05 l -0.01,0.05 v 0.05 0.05 0.05 0.05 0.06 l -0.01,0.05 v 0.05 0.06 0 0.05 l -0.01,0.05 v 0.04 l -0.01,0.05 v 0.05 0.04 l -0.01,0.04 v 0.04 0.04 l -0.01,0.04 z m 4.33,-1.26 v 0 -0.1 -0.09 l -0.01,-0.1 -0.01,-0.09 -0.01,-0.09 -0.02,-0.09 -0.01,-0.09 -0.02,-0.09 -0.03,-0.08 -0.02,-0.09 v 0 l -0.03,-0.09 -0.03,-0.08 -0.03,-0.08 -0.03,-0.08 -0.04,-0.08 -0.04,-0.08 -0.04,-0.07 -0.04,-0.07 -0.05,-0.07 -0.05,-0.07 v 0 l -0.05,-0.06 -0.05,-0.06 -0.06,-0.06 -0.06,-0.05 -0.06,-0.06 -0.06,-0.05 -0.07,-0.04 -0.07,-0.05 -0.07,-0.04 -0.08,-0.04 v 0 l -0.08,-0.04 -0.08,-0.03 -0.08,-0.03 -0.09,-0.03 -0.09,-0.02 -0.09,-0.02 -0.09,-0.01 -0.1,-0.02 h -0.1 -0.11 v 0 H 44 l -0.19,0.02 -0.19,0.03 -0.17,0.05 -0.17,0.05 -0.15,0.07 -0.15,0.09 -0.14,0.09 -0.12,0.11 -0.12,0.12 v 0 l -0.11,0.13 -0.09,0.14 -0.09,0.15 -0.08,0.16 -0.07,0.17 -0.06,0.18 -0.06,0.2 -0.04,0.2 -0.04,0.21 -0.03,0.22 z"
       style="fill:#800026;fill-rule:nonzero;stroke:none;stroke-width:0.75"
       id="path53" />
    <path
       d="m 50.13,43.951724 v 0 h 0.03 l 0.04,-0.01 0.03,-0.01 h 0.03 l 0.04,-0.01 h 0.03 l 0.04,-0.01 h 0.03 0.04 l 0.03,-0.01 v 0 h 0.04 0.03 l 0.04,-0.01 h 0.04 0.04 0.03 0.04 0.04 l 0.04,-0.01 h 0.03 v 0 h 0.04 l 0.03,0.01 h 0.04 0.03 0.04 0.04 0.03 l 0.04,0.01 h 0.04 0.03 v 0 l 0.04,0.01 h 0.04 0.03 l 0.04,0.01 h 0.04 l 0.03,0.01 h 0.04 l 0.03,0.01 0.04,0.01 h 0.03 v 0 l 0.01,0.01 v 0.01 0.02 l 0.01,0.01 v 0.03 0.02 l 0.01,0.03 v 0.03 0.03 l 0.01,0.03 v 0 0.04 l 0.01,0.03 v 0.04 l 0.01,0.04 0.01,0.03 v 0.04 l 0.01,0.04 v 0.04 0.04 l 0.01,0.04 v 0 0.04 l 0.01,0.04 0.01,0.04 v 0.04 l 0.01,0.04 v 0.04 l 0.01,0.04 v 0.04 0.04 l 0.01,0.03 v 0 0.04 l 0.01,0.03 0.01,0.03 v 0.03 0.03 l 0.01,0.02 v 0.02 0.02 0.01 0.01 0 l 0.04,-0.05 0.03,-0.06 0.04,-0.05 0.04,-0.05 0.04,-0.06 0.04,-0.05 0.04,-0.05 0.05,-0.05 0.05,-0.06 0.04,-0.05 v 0 l 0.05,-0.05 0.05,-0.05 0.05,-0.05 0.06,-0.04 0.05,-0.05 0.06,-0.05 0.06,-0.04 0.06,-0.04 0.06,-0.05 0.07,-0.04 v 0 l 0.06,-0.04 0.07,-0.04 0.08,-0.03 0.07,-0.04 0.07,-0.03 0.08,-0.03 0.08,-0.03 0.08,-0.03 0.08,-0.03 0.08,-0.02 v 0 l 0.08,-0.03 0.09,-0.02 0.09,-0.01 0.09,-0.02 0.09,-0.01 0.1,-0.01 0.1,-0.01 0.09,-0.01 h 0.1 0.11 v 0 h 0.15 l 0.15,0.01 0.15,0.01 0.14,0.02 0.14,0.02 0.14,0.03 0.14,0.03 0.14,0.04 0.13,0.05 0.13,0.04 v 0 l 0.13,0.06 0.13,0.06 0.12,0.06 0.12,0.08 0.12,0.07 0.11,0.09 0.1,0.08 0.11,0.1 0.1,0.1 0.09,0.11 v 0 l 0.09,0.11 0.09,0.11 0.09,0.12 0.08,0.13 0.07,0.13 0.07,0.14 0.07,0.15 0.06,0.15 0.06,0.16 0.05,0.16 v 0 l 0.06,0.17 0.04,0.17 0.04,0.18 0.04,0.19 0.03,0.19 0.02,0.2 0.02,0.2 0.02,0.21 v 0.22 l 0.01,0.22 v 0 l -0.02,0.44 -0.03,0.42 -0.06,0.4 -0.09,0.39 -0.11,0.36 -0.14,0.34 -0.16,0.33 -0.18,0.3 -0.21,0.29 -0.23,0.26 v 0 l -0.26,0.24 -0.27,0.22 -0.29,0.19 -0.32,0.16 -0.33,0.14 -0.36,0.11 -0.37,0.09 -0.4,0.07 -0.41,0.03 -0.44,0.02 v 0 h -0.08 l -0.07,-0.01 h -0.08 -0.07 l -0.08,-0.01 h -0.08 l -0.08,-0.01 -0.07,-0.01 -0.08,-0.01 -0.08,-0.01 v 0 l -0.08,-0.01 -0.07,-0.01 -0.08,-0.01 -0.07,-0.01 -0.07,-0.02 -0.06,-0.01 -0.07,-0.01 -0.06,-0.02 -0.06,-0.02 -0.06,-0.01 v 4.01 0 l -0.04,0.01 h -0.05 l -0.04,0.01 h -0.04 l -0.05,0.01 h -0.04 l -0.05,0.01 h -0.04 l -0.05,0.01 h -0.05 v 0 h -0.04 l -0.04,0.01 H 51.24 51.2 51.16 l -0.04,0.01 H 51.08 51.04 51 50.96 v 0 h -0.03 -0.04 -0.04 -0.04 l -0.05,-0.01 h -0.04 -0.04 -0.05 l -0.05,-0.01 h -0.04 v 0 h -0.05 l -0.04,-0.01 h -0.04 l -0.04,-0.01 h -0.05 l -0.04,-0.01 h -0.04 l -0.04,-0.01 h -0.03 l -0.04,-0.01 z m 1.69,7.33 v 0 l 0.06,0.02 0.07,0.02 0.06,0.02 0.07,0.02 0.07,0.02 0.06,0.02 0.07,0.01 0.07,0.01 0.07,0.02 0.06,0.01 v 0 l 0.07,0.01 0.08,0.01 h 0.08 l 0.08,0.01 0.09,0.01 h 0.09 0.09 l 0.1,0.01 h 0.1 0.11 v 0 h 0.12 l 0.12,-0.01 0.12,-0.01 0.12,-0.01 0.11,-0.02 0.11,-0.02 0.11,-0.02 0.11,-0.03 0.1,-0.03 0.11,-0.04 v 0 l 0.1,-0.04 0.1,-0.05 0.09,-0.05 0.09,-0.06 0.09,-0.06 0.09,-0.06 0.08,-0.07 0.08,-0.07 0.08,-0.07 0.07,-0.08 v 0 l 0.07,-0.09 0.07,-0.09 0.07,-0.09 0.06,-0.09 0.06,-0.1 0.06,-0.11 0.05,-0.11 0.05,-0.11 0.05,-0.12 0.04,-0.12 v 0 l 0.04,-0.13 0.04,-0.13 0.03,-0.14 0.03,-0.14 0.03,-0.15 0.02,-0.15 0.01,-0.15 0.01,-0.16 0.01,-0.16 v -0.17 0 -0.27 l -0.02,-0.26 -0.02,-0.24 -0.04,-0.24 -0.05,-0.22 -0.05,-0.21 -0.07,-0.2 -0.08,-0.19 -0.08,-0.18 -0.1,-0.16 v 0 l -0.11,-0.15 -0.12,-0.14 -0.13,-0.12 -0.14,-0.1 -0.16,-0.09 -0.17,-0.08 -0.18,-0.05 -0.2,-0.04 -0.21,-0.03 h -0.22 v 0 h -0.08 -0.09 l -0.08,0.01 -0.09,0.01 -0.08,0.01 -0.08,0.02 -0.08,0.02 -0.08,0.02 -0.08,0.03 -0.08,0.03 v 0 l -0.08,0.03 -0.07,0.04 -0.08,0.04 -0.07,0.04 -0.07,0.04 -0.07,0.05 -0.07,0.05 -0.06,0.05 -0.07,0.06 -0.06,0.06 v 0 l -0.06,0.06 -0.06,0.07 -0.05,0.07 -0.06,0.07 -0.05,0.08 -0.05,0.08 -0.04,0.08 -0.04,0.09 -0.05,0.09 -0.03,0.1 v 0 l -0.04,0.09 -0.03,0.1 -0.03,0.1 -0.02,0.1 -0.03,0.11 -0.01,0.12 -0.02,0.11 v 0.12 l -0.01,0.13 v 0.13 z"
       style="fill:#800026;fill-rule:nonzero;stroke:none;stroke-width:0.75"
       id="path54" />
    <path
       d="m 60.2,43.951724 v 0 h 0.03 l 0.04,-0.01 0.03,-0.01 h 0.04 l 0.03,-0.01 h 0.03 l 0.04,-0.01 h 0.03 0.04 l 0.03,-0.01 v 0 h 0.04 0.04 l 0.03,-0.01 h 0.04 0.04 0.04 0.03 0.04 l 0.04,-0.01 h 0.04 v 0 h 0.03 l 0.04,0.01 h 0.03 0.04 0.03 0.04 0.03 l 0.04,0.01 h 0.04 0.04 v 0 l 0.03,0.01 h 0.04 0.04 l 0.03,0.01 h 0.04 l 0.03,0.01 h 0.04 l 0.04,0.01 0.03,0.01 h 0.03 v 0 l 0.01,0.01 v 0.01 0.02 l 0.01,0.01 v 0.03 0.02 l 0.01,0.03 v 0.03 0.03 l 0.01,0.03 v 0 0.04 l 0.01,0.03 0.01,0.04 v 0.04 l 0.01,0.03 v 0.04 l 0.01,0.04 v 0.04 l 0.01,0.04 v 0.04 0 l 0.01,0.04 v 0.04 l 0.01,0.04 v 0.04 l 0.01,0.04 v 0.04 l 0.01,0.04 v 0.04 l 0.01,0.04 v 0.03 0 l 0.01,0.04 v 0.03 l 0.01,0.03 v 0.03 l 0.01,0.03 v 0.02 0.02 0.02 0.01 0.01 0 l 0.04,-0.05 0.04,-0.06 0.03,-0.05 0.04,-0.05 0.04,-0.06 0.04,-0.05 0.05,-0.05 0.04,-0.05 0.05,-0.06 0.04,-0.05 v 0 l 0.05,-0.05 0.05,-0.05 0.06,-0.05 0.05,-0.04 0.05,-0.05 0.06,-0.05 0.06,-0.04 0.06,-0.04 0.06,-0.05 0.07,-0.04 v 0 l 0.07,-0.04 0.07,-0.04 0.07,-0.03 0.07,-0.04 0.08,-0.03 0.07,-0.03 0.08,-0.03 0.08,-0.03 0.08,-0.03 0.08,-0.02 v 0 l 0.09,-0.03 0.08,-0.02 0.09,-0.01 0.09,-0.02 0.1,-0.01 0.09,-0.01 0.1,-0.01 0.1,-0.01 h 0.1 0.1 v 0 h 0.15 l 0.15,0.01 0.15,0.01 0.14,0.02 0.15,0.02 0.14,0.03 0.13,0.03 0.14,0.04 0.13,0.05 0.13,0.04 v 0 l 0.14,0.06 0.12,0.06 0.13,0.06 0.11,0.08 0.12,0.07 0.11,0.09 0.11,0.08 0.1,0.1 0.1,0.1 0.09,0.11 v 0 l 0.1,0.11 0.08,0.11 0.09,0.12 0.08,0.13 0.07,0.13 0.08,0.14 0.06,0.15 0.06,0.15 0.06,0.16 0.06,0.16 v 0 l 0.05,0.17 0.04,0.17 0.05,0.18 0.03,0.19 0.03,0.19 0.03,0.2 0.01,0.2 0.02,0.21 0.01,0.22 v 0.22 0 l -0.01,0.44 -0.04,0.42 -0.06,0.4 -0.09,0.39 -0.11,0.36 -0.13,0.34 -0.16,0.33 -0.19,0.3 -0.21,0.29 -0.23,0.26 v 0 l -0.25,0.24 -0.28,0.22 -0.29,0.19 -0.31,0.16 -0.34,0.14 -0.35,0.11 -0.38,0.09 -0.4,0.07 -0.41,0.03 -0.44,0.02 v 0 h -0.07 l -0.08,-0.01 h -0.08 -0.07 l -0.08,-0.01 h -0.08 l -0.07,-0.01 -0.08,-0.01 -0.08,-0.01 -0.08,-0.01 v 0 l -0.07,-0.01 -0.08,-0.01 -0.07,-0.01 -0.07,-0.01 -0.07,-0.02 -0.07,-0.01 -0.07,-0.01 -0.06,-0.02 -0.06,-0.02 -0.06,-0.01 v 4.01 0 l -0.04,0.01 h -0.04 l -0.05,0.01 h -0.04 l -0.04,0.01 h -0.05 l -0.04,0.01 h -0.05 l -0.05,0.01 h -0.04 v 0 H 61.4 l -0.04,0.01 h -0.04 -0.05 -0.04 l -0.04,0.01 h -0.04 -0.04 -0.04 -0.03 v 0 H 61 60.96 60.92 60.88 l -0.04,-0.01 H 60.79 60.75 60.7 l -0.04,-0.01 h -0.05 v 0 h -0.04 l -0.05,-0.01 h -0.04 l -0.04,-0.01 H 60.4 l -0.04,-0.01 h -0.04 l -0.04,-0.01 h -0.04 l -0.04,-0.01 z m 1.69,7.33 v 0 l 0.07,0.02 0.06,0.02 0.07,0.02 0.06,0.02 0.07,0.02 0.07,0.02 0.06,0.01 0.07,0.01 0.07,0.02 0.07,0.01 v 0 l 0.07,0.01 0.07,0.01 h 0.08 l 0.08,0.01 0.09,0.01 h 0.09 0.09 l 0.1,0.01 h 0.11 0.1 v 0 h 0.13 l 0.12,-0.01 0.11,-0.01 0.12,-0.01 0.11,-0.02 0.11,-0.02 0.11,-0.02 0.11,-0.03 0.11,-0.03 0.1,-0.04 v 0 l 0.1,-0.04 0.1,-0.05 0.09,-0.05 0.1,-0.06 0.08,-0.06 0.09,-0.06 0.08,-0.07 0.08,-0.07 0.08,-0.07 0.07,-0.08 v 0 l 0.07,-0.09 0.07,-0.09 0.07,-0.09 0.06,-0.09 0.06,-0.1 0.06,-0.11 0.05,-0.11 0.05,-0.11 0.05,-0.12 0.04,-0.12 v 0 l 0.04,-0.13 0.04,-0.13 0.03,-0.14 0.03,-0.14 0.03,-0.15 0.02,-0.15 0.01,-0.15 0.01,-0.16 0.01,-0.16 v -0.17 0 -0.27 l -0.02,-0.26 -0.02,-0.24 -0.04,-0.24 -0.04,-0.22 -0.06,-0.21 -0.07,-0.2 -0.07,-0.19 -0.09,-0.18 -0.1,-0.16 v 0 l -0.1,-0.15 -0.12,-0.14 -0.13,-0.12 -0.15,-0.1 -0.16,-0.09 -0.17,-0.08 -0.18,-0.05 -0.2,-0.04 -0.21,-0.03 h -0.22 v 0 h -0.08 -0.09 l -0.08,0.01 -0.08,0.01 -0.09,0.01 -0.08,0.02 -0.08,0.02 -0.08,0.02 -0.08,0.03 -0.08,0.03 v 0 l -0.07,0.03 -0.08,0.04 -0.07,0.04 -0.08,0.04 -0.07,0.04 -0.07,0.05 -0.06,0.05 -0.07,0.05 -0.06,0.06 -0.07,0.06 v 0 l -0.06,0.06 -0.06,0.07 -0.05,0.07 -0.05,0.07 -0.05,0.08 -0.05,0.08 -0.05,0.08 -0.04,0.09 -0.04,0.09 -0.04,0.1 v 0 l -0.04,0.09 -0.03,0.1 -0.03,0.1 -0.02,0.1 -0.02,0.11 -0.02,0.12 -0.01,0.11 -0.01,0.12 -0.01,0.13 v 0.13 z"
       style="fill:#800026;fill-rule:nonzero;stroke:none;stroke-width:0.75"
       id="path55" />
    <path
       d="m 69.3,43.951724 v 0 h 0.05 l 0.04,-0.01 0.05,-0.01 h 0.05 l 0.05,-0.01 h 0.05 l 0.04,-0.01 h 0.05 0.05 l 0.05,-0.01 v 0 h 0.04 0.05 l 0.05,-0.01 h 0.04 0.04 0.05 0.04 0.04 l 0.04,-0.01 h 0.03 v 0 h 0.05 l 0.05,0.01 h 0.05 0.05 0.04 0.05 0.05 l 0.05,0.01 h 0.04 0.05 v 0 l 0.05,0.01 h 0.05 0.05 l 0.05,0.01 h 0.04 l 0.04,0.01 h 0.05 l 0.04,0.01 0.04,0.01 h 0.04 l 1.7,7.16 1.93,-7.16 v 0 h 0.04 l 0.04,-0.01 0.04,-0.01 h 0.04 l 0.04,-0.01 H 75 l 0.04,-0.01 h 0.04 0.05 l 0.04,-0.01 v 0 h 0.05 0.04 l 0.05,-0.01 h 0.04 0.05 0.04 0.05 0.05 l 0.05,-0.01 h 0.04 v 0 l 0.06,0.01 h 0.05 0.05 l 0.05,0.01 h 0.04 l 0.05,0.01 h 0.04 0.05 l 0.04,0.01 h 0.03 v 0 h 0.04 0.05 0.04 0.03 l 0.04,0.01 h 0.04 l 0.04,0.01 h 0.04 l 0.04,0.01 h 0.04 l 1.91,7.04 1.71,-7.04 v 0 h 0.03 l 0.04,-0.01 0.04,-0.01 h 0.04 l 0.03,-0.01 h 0.04 l 0.04,-0.01 h 0.04 0.03 l 0.04,-0.01 v 0 h 0.04 0.04 l 0.04,-0.01 h 0.04 0.04 0.04 0.04 0.04 l 0.05,-0.01 h 0.04 v 0 h 0.04 l 0.04,0.01 h 0.04 0.04 0.04 0.04 0.04 l 0.04,0.01 h 0.05 0.04 v 0 l 0.05,0.01 h 0.05 0.04 l 0.05,0.01 h 0.05 l 0.05,0.01 h 0.05 l 0.04,0.01 0.05,0.01 h 0.05 l -2.61,8.76 v 0 l -0.05,0.01 h -0.04 l -0.05,0.01 -0.04,0.01 h -0.05 l -0.05,0.01 H 78.85 78.8 l -0.05,0.01 h -0.04 v 0 l -0.05,0.01 h -0.04 -0.04 -0.05 -0.04 l -0.04,0.01 H 78.41 78.37 78.33 78.3 v 0 h -0.04 -0.04 -0.04 -0.04 l -0.04,-0.01 h -0.04 -0.04 -0.05 -0.04 l -0.04,-0.01 v 0 h -0.05 l -0.04,-0.01 h -0.05 -0.04 l -0.05,-0.01 h -0.04 l -0.04,-0.01 -0.05,-0.01 h -0.04 l -0.05,-0.01 -1.88,-6.62 -1.96,6.62 v 0 l -0.05,0.01 h -0.04 l -0.05,0.01 -0.05,0.01 h -0.05 l -0.05,0.01 h -0.04 -0.05 l -0.05,0.01 h -0.05 v 0 l -0.04,0.01 h -0.04 -0.05 -0.04 -0.04 l -0.04,0.01 h -0.04 -0.04 -0.04 -0.04 v 0 H 72.68 72.64 72.6 72.56 l -0.05,-0.01 h -0.04 -0.04 -0.05 -0.05 l -0.04,-0.01 v 0 h -0.05 l -0.04,-0.01 h -0.04 -0.05 l -0.04,-0.01 h -0.04 l -0.04,-0.01 -0.04,-0.01 h -0.04 l -0.03,-0.01 z"
       style="fill:#800026;fill-rule:nonzero;stroke:none;stroke-width:0.75"
       id="path56" />
    <path
       d="m 83.69,40.421724 v 0 l 0.08,-0.01 h 0.07 l 0.07,-0.01 0.07,-0.01 0.07,-0.01 h 0.07 l 0.06,-0.01 0.07,-0.01 h 0.06 l 0.06,-0.01 v 0 l 0.06,-0.01 h 0.07 l 0.06,-0.01 h 0.06 l 0.06,-0.01 h 0.06 l 0.06,-0.01 h 0.05 l 0.06,-0.01 h 0.06 v 0 l 0.06,-0.01 h 0.06 l 0.07,-0.01 h 0.06 l 0.06,-0.01 0.07,-0.01 h 0.06 0.06 l 0.07,-0.01 h 0.06 v 0 h 0.07 l 0.07,-0.01 h 0.06 0.07 0.07 l 0.08,-0.01 h 0.07 0.08 0.07 0.08 v 0 h 0.17 l 0.18,0.01 0.17,0.01 0.17,0.01 0.18,0.01 0.17,0.02 0.17,0.02 0.17,0.03 0.17,0.03 0.17,0.03 v 0 l 0.17,0.04 0.17,0.04 0.16,0.05 0.16,0.05 0.15,0.06 0.15,0.06 0.15,0.07 0.14,0.07 0.14,0.08 0.13,0.08 v 0 l 0.13,0.09 0.13,0.09 0.12,0.1 0.11,0.11 0.12,0.11 0.1,0.12 0.1,0.13 0.09,0.13 0.09,0.14 0.09,0.14 v 0 l 0.08,0.15 0.07,0.15 0.07,0.17 0.05,0.17 0.05,0.18 0.04,0.18 0.03,0.2 0.02,0.2 0.01,0.21 0.01,0.22 v 0 l -0.01,0.13 v 0.13 l -0.01,0.13 -0.02,0.12 -0.02,0.12 -0.02,0.12 -0.03,0.12 -0.04,0.12 -0.03,0.11 -0.05,0.11 v 0 l -0.04,0.11 -0.05,0.1 -0.05,0.11 -0.05,0.1 -0.06,0.1 -0.06,0.09 -0.06,0.1 -0.06,0.09 -0.06,0.09 -0.07,0.08 v 0 l -0.07,0.09 -0.07,0.08 -0.07,0.08 -0.08,0.08 -0.08,0.07 -0.08,0.08 -0.08,0.07 -0.08,0.07 -0.09,0.07 -0.09,0.06 v 0 l -0.08,0.06 -0.09,0.06 -0.08,0.06 -0.08,0.05 -0.09,0.06 -0.08,0.05 -0.08,0.04 -0.09,0.05 -0.08,0.04 -0.08,0.05 -0.21,0.1 3.57,5.17 v 0 l -0.09,0.01 -0.1,0.01 -0.1,0.01 h -0.1 l -0.1,0.01 h -0.1 l -0.11,0.01 H 91.21 91.1 90.98 v 0 H 90.89 90.8 90.7 l -0.09,-0.01 h -0.09 l -0.09,-0.01 h -0.1 l -0.09,-0.01 -0.09,-0.01 -0.09,-0.01 -3.93,-5.68 v -0.07 l 0.14,-0.04 v 0 l 0.09,-0.02 0.09,-0.03 0.1,-0.03 0.1,-0.03 0.09,-0.03 0.1,-0.03 0.1,-0.04 0.1,-0.03 0.1,-0.04 0.1,-0.04 v 0 l 0.1,-0.04 0.1,-0.05 0.1,-0.04 0.1,-0.05 0.09,-0.06 0.1,-0.05 0.09,-0.06 0.09,-0.06 0.08,-0.06 0.09,-0.06 v 0 l 0.09,-0.07 0.08,-0.07 0.08,-0.08 0.08,-0.07 0.08,-0.08 0.07,-0.08 0.07,-0.09 0.06,-0.08 0.06,-0.09 0.06,-0.09 v 0 l 0.06,-0.1 0.05,-0.1 0.04,-0.11 0.04,-0.11 0.03,-0.11 0.03,-0.11 0.02,-0.12 0.01,-0.13 0.01,-0.13 v -0.13 0 -0.24 l -0.02,-0.22 -0.04,-0.22 -0.05,-0.2 -0.07,-0.19 -0.08,-0.17 -0.09,-0.17 -0.12,-0.15 -0.12,-0.14 -0.14,-0.12 v 0 l -0.15,-0.12 -0.16,-0.1 -0.17,-0.09 -0.17,-0.08 -0.19,-0.06 -0.2,-0.05 -0.21,-0.05 -0.22,-0.03 -0.23,-0.01 -0.25,-0.01 v 0 H 86.47 86.41 86.35 86.3 86.24 l -0.05,0.01 h -0.06 -0.05 -0.05 l -0.05,0.01 v 0 h -0.05 -0.05 l -0.05,0.01 h -0.05 l -0.06,0.01 h -0.05 l -0.06,0.01 h -0.06 l -0.06,0.01 -0.06,0.01 v 10.94 0 h -0.04 l -0.04,0.01 h -0.04 -0.04 l -0.04,0.01 h -0.04 -0.05 l -0.04,0.01 h -0.05 -0.04 v 0 l -0.05,0.01 h -0.04 -0.05 l -0.04,0.01 H 84.79 84.74 84.7 84.66 84.62 84.58 v 0 H 84.54 84.5 84.45 84.41 84.36 84.32 l -0.05,-0.01 h -0.04 -0.05 l -0.05,-0.01 v 0 H 84.09 84.04 83.99 83.95 83.9 l -0.04,-0.01 h -0.04 l -0.05,-0.01 h -0.04 l -0.04,-0.01 z"
       style="fill:#800026;fill-rule:nonzero;stroke:none;stroke-width:0.75"
       id="path57" />
    <g
       clip-path="url(#cpMC4wMHwxMjQuNDR8MC4wMHwxNDQuMDA=)"
       id="g58" />
  </g>
</svg>
